<?xml version="1.0" encoding="UTF-8" standalone="no"?>
<!-- Created with Inkscape (http://www.inkscape.org/) -->

<svg
   width="800"
   height="90"
   viewBox="0 0 211.66665 23.812499"
   version="1.1"
   id="svg1"
   inkscape:version="1.3.2 (091e20ef0f, 2023-11-25)"
   sodipodi:docname="titlee.svg"
   xml:space="preserve"
   xmlns:inkscape="http://www.inkscape.org/namespaces/inkscape"
   xmlns:sodipodi="http://sodipodi.sourceforge.net/DTD/sodipodi-0.dtd"
   xmlns="http://www.w3.org/2000/svg"
   xmlns:svg="http://www.w3.org/2000/svg"><sodipodi:namedview
     id="namedview1"
     pagecolor="#ffffff"
     bordercolor="#000000"
     borderopacity="0.25"
     inkscape:showpageshadow="2"
     inkscape:pageopacity="0.0"
     inkscape:pagecheckerboard="0"
     inkscape:deskcolor="#d1d1d1"
     inkscape:document-units="px"
     inkscape:zoom="0.5026827"
     inkscape:cx="201.91664"
     inkscape:cy="133.28487"
     inkscape:window-width="1920"
     inkscape:window-height="1002"
     inkscape:window-x="0"
     inkscape:window-y="0"
     inkscape:window-maximized="1"
     inkscape:current-layer="layer1" /><defs
     id="defs1"><linearGradient
       id="paint0_linear_87_8208"
       x1="25.0863"
       y1="30.182501"
       x2="20.0019"
       y2="21.2307"
       gradientUnits="userSpaceOnUse"
       gradientTransform="matrix(0.3503147,0,0,0.3503147,6.14672,72.751477)"><stop
         stop-color="#FB7655"
         id="stop18" /><stop
         offset="0.41"
         stop-color="#E42B1E"
         id="stop19" /><stop
         offset="0.99"
         stop-color="#990000"
         id="stop20" /><stop
         offset="1"
         stop-color="#990000"
         id="stop21" /></linearGradient><linearGradient
       id="paint1_linear_87_8208"
       x1="27.608601"
       y1="22.6528"
       x2="21.0723"
       y2="18.278601"
       gradientUnits="userSpaceOnUse"
       gradientTransform="matrix(0.3503147,0,0,0.3503147,6.14672,72.751477)"><stop
         stop-color="#871101"
         id="stop22" /><stop
         offset="0.99"
         stop-color="#911209"
         id="stop23" /><stop
         offset="1"
         stop-color="#911209"
         id="stop24" /></linearGradient><linearGradient
       id="paint2_linear_87_8208"
       x1="22.3878"
       y1="30.454201"
       x2="15.8517"
       y2="26.0802"
       gradientUnits="userSpaceOnUse"
       gradientTransform="matrix(0.3503147,0,0,0.3503147,6.14672,72.751477)"><stop
         stop-color="#871101"
         id="stop25" /><stop
         offset="0.99"
         stop-color="#911209"
         id="stop26" /><stop
         offset="1"
         stop-color="#911209"
         id="stop27" /></linearGradient><linearGradient
       id="paint3_linear_87_8208"
       x1="8.6876898"
       y1="19.4743"
       x2="9.7047195"
       y2="26.065701"
       gradientUnits="userSpaceOnUse"
       gradientTransform="matrix(0.3503147,0,0,0.3503147,6.14672,72.751477)"><stop
         stop-color="white"
         id="stop28" /><stop
         offset="0.23"
         stop-color="#E57252"
         id="stop29" /><stop
         offset="0.46"
         stop-color="#DE3B20"
         id="stop30" /><stop
         offset="0.99"
         stop-color="#A60003"
         id="stop31" /><stop
         offset="1"
         stop-color="#A60003"
         id="stop32" /></linearGradient><linearGradient
       id="paint4_linear_87_8208"
       x1="21.819201"
       y1="7.1000199"
       x2="22.940901"
       y2="11.9204"
       gradientUnits="userSpaceOnUse"
       gradientTransform="matrix(0.3503147,0,0,0.3503147,6.14672,72.751477)"><stop
         stop-color="white"
         id="stop33" /><stop
         offset="0.18"
         stop-color="#E46342"
         id="stop34" /><stop
         offset="0.4"
         stop-color="#C82410"
         id="stop35" /><stop
         offset="0.99"
         stop-color="#A80D00"
         id="stop36" /><stop
         offset="1"
         stop-color="#A80D00"
         id="stop37" /></linearGradient><linearGradient
       id="paint5_linear_87_8208"
       x1="18.411699"
       y1="5.4017701"
       x2="23.2251"
       y2="3.00175"
       gradientUnits="userSpaceOnUse"
       gradientTransform="matrix(0.3503147,0,0,0.3503147,6.14672,72.751477)"><stop
         stop-color="white"
         id="stop38" /><stop
         offset="0.54"
         stop-color="#C81F11"
         id="stop39" /><stop
         offset="0.99"
         stop-color="#BF0905"
         id="stop40" /><stop
         offset="1"
         stop-color="#BF0905"
         id="stop41" /></linearGradient><linearGradient
       id="paint6_linear_87_8208"
       x1="4.4728198"
       y1="17.793501"
       x2="4.8707299"
       y2="21.7663"
       gradientUnits="userSpaceOnUse"
       gradientTransform="matrix(0.3503147,0,0,0.3503147,6.14672,72.751477)"><stop
         stop-color="white"
         id="stop42" /><stop
         offset="0.31"
         stop-color="#DE4024"
         id="stop43" /><stop
         offset="0.99"
         stop-color="#BF190B"
         id="stop44" /><stop
         offset="1"
         stop-color="#BF190B"
         id="stop45" /></linearGradient><linearGradient
       id="paint7_linear_87_8208"
       x1="15.6452"
       y1="13.3187"
       x2="16.02"
       y2="20.0464"
       gradientUnits="userSpaceOnUse"
       gradientTransform="matrix(0.3503147,0,0,0.3503147,6.14672,72.751477)"><stop
         stop-color="white"
         id="stop46" /><stop
         offset="0.23"
         stop-color="#E4714E"
         id="stop47" /><stop
         offset="0.56"
         stop-color="#BE1A0D"
         id="stop48" /><stop
         offset="0.99"
         stop-color="#A80D00"
         id="stop49" /><stop
         offset="1"
         stop-color="#A80D00"
         id="stop50" /></linearGradient><linearGradient
       id="paint8_linear_87_8208"
       x1="1.75216"
       y1="22.840401"
       x2="20.407801"
       y2="3.71053"
       gradientUnits="userSpaceOnUse"
       gradientTransform="matrix(0.3503147,0,0,0.3503147,6.14672,72.751477)"><stop
         stop-color="#BD0012"
         id="stop51" /><stop
         offset="0.07"
         stop-color="white"
         id="stop52" /><stop
         offset="0.17"
         stop-color="white"
         id="stop53" /><stop
         offset="0.27"
         stop-color="#C82F1C"
         id="stop54" /><stop
         offset="0.33"
         stop-color="#820C01"
         id="stop55" /><stop
         offset="0.46"
         stop-color="#A31601"
         id="stop56" /><stop
         offset="0.72"
         stop-color="#B31301"
         id="stop57" /><stop
         offset="0.99"
         stop-color="#E82609"
         id="stop58" /><stop
         offset="1"
         stop-color="#E82609"
         id="stop59" /></linearGradient><linearGradient
       id="paint9_linear_87_8208"
       x1="16.001499"
       y1="24.7752"
       x2="10.3965"
       y2="23.3957"
       gradientUnits="userSpaceOnUse"
       gradientTransform="matrix(0.3503147,0,0,0.3503147,6.14672,72.751477)"><stop
         stop-color="#8C0C01"
         id="stop60" /><stop
         offset="0.54"
         stop-color="#990C00"
         id="stop61" /><stop
         offset="0.99"
         stop-color="#A80D0E"
         id="stop62" /><stop
         offset="1"
         stop-color="#A80D0E"
         id="stop63" /></linearGradient><linearGradient
       id="paint10_linear_87_8208"
       x1="25.625099"
       y1="18.031401"
       x2="20.635"
       y2="13.5714"
       gradientUnits="userSpaceOnUse"
       gradientTransform="matrix(0.3503147,0,0,0.3503147,6.14672,72.751477)"><stop
         stop-color="#7E110B"
         id="stop64" /><stop
         offset="0.99"
         stop-color="#9E0C00"
         id="stop65" /><stop
         offset="1"
         stop-color="#9E0C00"
         id="stop66" /></linearGradient><linearGradient
       id="paint11_linear_87_8208"
       x1="27.453899"
       y1="9.8231401"
       x2="24.9671"
       y2="7.1718898"
       gradientUnits="userSpaceOnUse"
       gradientTransform="matrix(0.3503147,0,0,0.3503147,6.14672,72.751477)"><stop
         stop-color="#79130D"
         id="stop67" /><stop
         offset="0.99"
         stop-color="#9E120B"
         id="stop68" /><stop
         offset="1"
         stop-color="#9E120B"
         id="stop69" /></linearGradient><radialGradient
       id="paint12_radial_87_8208"
       cx="0"
       cy="0"
       r="1"
       gradientUnits="userSpaceOnUse"
       gradientTransform="matrix(2.1369022,0,0,2.142847,13.651477,77.530891)"><stop
         stop-color="#A80D00"
         id="stop70" /><stop
         offset="0.99"
         stop-color="#7E0E08"
         id="stop71" /><stop
         offset="1"
         stop-color="#7E0E08"
         id="stop72" /></radialGradient><radialGradient
       id="paint13_radial_87_8208"
       cx="0"
       cy="0"
       r="1"
       gradientUnits="userSpaceOnUse"
       gradientTransform="matrix(2.8407229,0,0,2.848633,10.692228,80.354777)"><stop
         stop-color="#A30C00"
         id="stop73" /><stop
         offset="0.99"
         stop-color="#800E08"
         id="stop74" /><stop
         offset="1"
         stop-color="#800E08"
         id="stop75" /></radialGradient><linearGradient
       id="paint14_linear_87_8208"
       x1="7.2307501"
       y1="27.9701"
       x2="5.1997499"
       y2="21.0987"
       gradientUnits="userSpaceOnUse"
       gradientTransform="matrix(0.3503147,0,0,0.3503147,6.14672,72.751477)"><stop
         stop-color="#8B2114"
         id="stop76" /><stop
         offset="0.43"
         stop-color="#9E100A"
         id="stop77" /><stop
         offset="0.99"
         stop-color="#B3100C"
         id="stop78" /><stop
         offset="1"
         stop-color="#B3100C"
         id="stop79" /></linearGradient><linearGradient
       id="paint15_linear_87_8208"
       x1="22.7321"
       y1="5.1903701"
       x2="27.2663"
       y2="7.1862798"
       gradientUnits="userSpaceOnUse"
       gradientTransform="matrix(0.3503147,0,0,0.3503147,6.14672,72.751477)"><stop
         stop-color="#B31000"
         id="stop80" /><stop
         offset="0.44"
         stop-color="#910F08"
         id="stop81" /><stop
         offset="0.99"
         stop-color="#791C12"
         id="stop82" /><stop
         offset="1"
         stop-color="#791C12"
         id="stop83" /></linearGradient><linearGradient
       id="paint0_linear_87_8204"
       x1="12.4809"
       y1="2"
       x2="12.4809"
       y2="22.7407"
       gradientUnits="userSpaceOnUse"
       gradientTransform="matrix(0.34542143,0,0,0.34542143,475.10095,-7.3026251)"><stop
         stop-color="#327EBD"
         id="stop2" /><stop
         offset="1"
         stop-color="#1565A7"
         id="stop3" /></linearGradient><linearGradient
       id="paint1_linear_87_8204"
       x1="19.518999"
       y1="9.2592802"
       x2="19.518999"
       y2="30"
       gradientUnits="userSpaceOnUse"
       gradientTransform="matrix(0.34542143,0,0,0.34542143,475.10095,-7.3026251)"><stop
         stop-color="#FFDA4B"
         id="stop4"
         offset="0"
         style="stop-color:#f9cb00;stop-opacity:1;" /><stop
         offset="1"
         stop-color="#F9C600"
         id="stop5"
         style="stop-color:#ffa90d;stop-opacity:1;" /></linearGradient><radialGradient
       id="paint12_radial_87_8208-3"
       cx="0"
       cy="0"
       r="1"
       gradientUnits="userSpaceOnUse"
       gradientTransform="matrix(2.1369022,0,0,2.142847,13.651477,77.530891)"><stop
         stop-color="#A80D00"
         id="stop70-0" /><stop
         offset="0.99"
         stop-color="#7E0E08"
         id="stop71-7" /><stop
         offset="1"
         stop-color="#7E0E08"
         id="stop72-8" /></radialGradient><radialGradient
       id="paint13_radial_87_8208-6"
       cx="0"
       cy="0"
       r="1"
       gradientUnits="userSpaceOnUse"
       gradientTransform="matrix(2.8407229,0,0,2.848633,10.692228,80.354777)"><stop
         stop-color="#A30C00"
         id="stop73-8" /><stop
         offset="0.99"
         stop-color="#800E08"
         id="stop74-8" /><stop
         offset="1"
         stop-color="#800E08"
         id="stop75-4" /></radialGradient><linearGradient
       id="paint0_linear_87_8204-9"
       x1="12.4809"
       y1="2"
       x2="12.4809"
       y2="22.7407"
       gradientUnits="userSpaceOnUse"
       gradientTransform="matrix(0.34542143,0,0,0.34542143,475.10095,-7.3026251)"><stop
         stop-color="#327EBD"
         id="stop2-6" /><stop
         offset="1"
         stop-color="#1565A7"
         id="stop3-4" /></linearGradient><linearGradient
       id="paint1_linear_87_8204-3"
       x1="19.518999"
       y1="9.2592802"
       x2="19.518999"
       y2="30"
       gradientUnits="userSpaceOnUse"
       gradientTransform="matrix(0.34542143,0,0,0.34542143,475.10095,-7.3026251)"><stop
         stop-color="#FFDA4B"
         id="stop4-3"
         offset="0"
         style="stop-color:#f9cb00;stop-opacity:1;" /><stop
         offset="1"
         stop-color="#F9C600"
         id="stop5-3"
         style="stop-color:#ffa90d;stop-opacity:1;" /></linearGradient></defs><g
     inkscape:label="Camada 1"
     inkscape:groupmode="layer"
     id="layer1"><rect
       style="fill:#dfdbd4;fill-opacity:1;stroke-width:0.269115"
       id="rect1"
       width="211.66666"
       height="23.812498"
       x="-1.7470703e-06"
       y="3.1304933e-07"
       ry="2.4261215" /><path
       id="path2"
       style="color:#000000;-inkscape-font-specification:'Liberation Sans Bold';fill:#5e513c;stroke-width:0.82922;stroke-linecap:round;stroke-linejoin:round;-inkscape-stroke:none"
       d="m 91.666676,8.67532 c -0.956179,0 -1.756818,0.2818137 -2.327244,0.8583082 -0.570514,0.5765838 -0.847167,1.3844838 -0.847167,2.3499558 0,0.967962 0.276248,1.781026 0.843739,2.372668 a 0.32912959,0.32912959 0 0 0 0.0017,0.0017 c 0.571378,0.589518 1.370429,0.879306 2.320815,0.879306 0.6211,0 1.184982,-0.127973 1.671196,-0.392089 0.486648,-0.267356 0.871074,-0.662634 1.130841,-1.161266 0.259521,-0.498161 0.385231,-1.069872 0.385231,-1.700333 0,-0.955309 -0.279339,-1.759622 -0.850166,-2.3400993 -0.57006,-0.5821896 -1.372094,-0.8681354 -2.328929,-0.8681354 z m 7.307403,0 c -0.772017,0 -1.399412,0.1405487 -1.864023,0.4696487 -0.461449,0.3259175 -0.7109,0.8445471 -0.7109,1.4363703 0,0.227932 0.02836,0.440398 0.09213,0.635054 a 0.32912959,0.32912959 0 0 0 0.0017,0.0047 c 0.06449,0.187013 0.155348,0.358086 0.275104,0.505215 0.117391,0.144223 0.260825,0.267151 0.422942,0.367663 a 0.32912959,0.32912959 0 0 0 0.0047,0.0034 c 0.153069,0.09184 0.320067,0.170253 0.502215,0.237825 a 0.32912959,0.32912959 0 0 0 0.0047,0.0017 c 0.193684,0.06872 0.488878,0.146535 0.915301,0.246394 a 0.32912959,0.32912959 0 0 0 0.0094,0.0017 c 0.480971,0.09725 0.811698,0.18612 0.931583,0.234824 a 0.32912959,0.32912959 0 0 0 0.0012,0.0017 c 0.139686,0.05588 0.227204,0.117359 0.277246,0.173119 a 0.32912959,0.32912959 0 0 0 0.003,0.003 c 0.03901,0.04226 0.05699,0.07925 0.05699,0.173547 0,0.160691 -0.02792,0.208461 -0.150836,0.283245 -0.122917,0.07479 -0.377403,0.140981 -0.756322,0.140981 -0.360801,0 -0.613796,-0.06415 -0.764463,-0.153836 -0.146144,-0.08935 -0.242109,-0.216704 -0.302955,-0.451702 a 0.32912959,0.32912959 0 0 0 -0.372378,-0.242965 l -1.140267,0.187687 a 0.32912959,0.32912959 0 0 0 -0.266964,0.396802 c 0.133009,0.589469 0.455393,1.07001 0.939297,1.371664 0.484498,0.302025 1.113558,0.434082 1.875594,0.434082 0.832817,0 1.501477,-0.147813 1.991717,-0.497073 0.49041,-0.350291 0.75504,-0.90307 0.75504,-1.53707 0,-0.268488 -0.0422,-0.518344 -0.13284,-0.743467 -0.0885,-0.221957 -0.22116,-0.418911 -0.39208,-0.579776 -0.17488,-0.167258 -0.39591,-0.299284 -0.65734,-0.406228 -0.27427,-0.116142 -0.667005,-0.221144 -1.214832,-0.33724 h -0.0017 c -0.446078,-0.09659 -0.74835,-0.182721 -0.843739,-0.223253 -0.113922,-0.0511 -0.18148,-0.104988 -0.217255,-0.147408 -0.02158,-0.02753 -0.03857,-0.06298 -0.03857,-0.152122 0,-0.13666 0.018,-0.165759 0.113125,-0.225396 0.09514,-0.05963 0.307139,-0.11827 0.630341,-0.11827 0.296187,0 0.486768,0.05814 0.586203,0.126412 a 0.32912959,0.32912959 0 0 0 0.0017,0.0017 c 0.111683,0.07554 0.181484,0.173219 0.224969,0.353093 a 0.32912959,0.32912959 0 0 0 0.364238,0.249393 l 1.14498,-0.157263 a 0.32912959,0.32912959 0 0 0 0.27682,-0.390374 C 101.4349,9.7854367 101.15633,9.3253058 100.71984,9.0541518 100.28674,8.7835067 99.70692,8.6753474 98.974078,8.6753474 Z m 17.140021,0 c -0.95619,0 -1.75683,0.2818129 -2.32725,0.8583082 -0.57051,0.5765838 -0.84888,1.3844828 -0.84888,2.3499558 0,0.967962 0.27795,1.781026 0.84546,2.372668 a 0.32912959,0.32912959 0 0 0 0,0.0017 c 0.57137,0.589519 1.37213,0.879306 2.32252,0.879306 0.6211,0 1.1837,-0.127973 1.66992,-0.392089 a 0.32912959,0.32912959 0 0 0 0.002,0 c 0.48665,-0.267356 0.87064,-0.662634 1.13041,-1.161266 0.25953,-0.498161 0.38565,-1.069872 0.38565,-1.700333 0,-0.954972 -0.27975,-1.75967 -0.85016,-2.3400993 -0.57006,-0.5821796 -1.37212,-0.8681644 -2.32895,-0.8681644 z m 25.07091,0 c -0.7714,0 -1.39824,0.1411267 -1.86274,0.4696487 -0.46145,0.3259183 -0.71262,0.8445471 -0.71262,1.4363703 0,0.227927 0.0287,0.440403 0.0925,0.635054 a 0.32912959,0.32912959 0 0 0 0.002,0.0047 c 0.0645,0.187016 0.15705,0.358084 0.27681,0.505215 0.1174,0.144224 0.25912,0.267151 0.42124,0.367663 a 0.32912959,0.32912959 0 0 0 0.005,0.0034 c 0.15307,0.09184 0.32006,0.170253 0.50221,0.237825 a 0.32912959,0.32912959 0 0 0 0.005,0.0017 c 0.19369,0.06872 0.49016,0.146535 0.91659,0.246394 a 0.32912959,0.32912959 0 0 0 0.01,0.0017 c 0.48098,0.09725 0.80999,0.186121 0.92987,0.234824 a 0.32912959,0.32912959 0 0 0 0.002,0.0017 c 0.13968,0.05588 0.22679,0.117361 0.27682,0.173119 a 0.32912959,0.32912959 0 0 0 0.004,0.003 c 0.039,0.04226 0.0566,0.07925 0.0566,0.173547 0,0.160691 -0.0275,0.208461 -0.1504,0.283245 -0.12292,0.07479 -0.37741,0.140981 -0.75633,0.140981 -0.3608,0 -0.6138,-0.06415 -0.76446,-0.153836 -0.14615,-0.0893 -0.24211,-0.216654 -0.30296,-0.451651 a 0.32912959,0.32912959 0 0 0 -0.3711,-0.242965 l -1.14155,0.187687 a 0.32912959,0.32912959 0 0 0 -0.26739,0.396802 c 0.13301,0.58947 0.45539,1.07001 0.93931,1.371665 0.48449,0.302023 1.11356,0.434081 1.87559,0.434081 0.83281,0 1.50189,-0.147814 1.99215,-0.497073 0.49041,-0.350291 0.75461,-0.903069 0.75461,-1.53707 0,-0.26792 -0.0408,-0.517002 -0.13112,-0.741752 v -0.0017 c -0.0882,-0.221593 -0.22005,-0.41727 -0.39038,-0.57806 -0.17445,-0.167596 -0.39501,-0.29949 -0.65606,-0.406658 -0.2744,-0.116701 -0.66949,-0.221958 -1.21953,-0.338524 h -0.002 c -0.44609,-0.09659 -0.74836,-0.182724 -0.84375,-0.223254 -0.11294,-0.05066 -0.17909,-0.103449 -0.2151,-0.145694 -0.0219,-0.02763 -0.0407,-0.0638 -0.0407,-0.153835 0,-0.13666 0.0185,-0.165761 0.11357,-0.225398 0.0951,-0.05963 0.30669,-0.118269 0.6299,-0.118269 0.29619,0 0.48677,0.05814 0.58621,0.126412 a 0.32912959,0.32912959 0 0 0 0.002,0.0017 c 0.11168,0.07554 0.18147,0.173221 0.22496,0.353092 a 0.32912959,0.32912959 0 0 0 0.36423,0.249394 l 1.14498,-0.157263 a 0.32912959,0.32912959 0 0 0 0.27854,-0.390375 c -0.11411,-0.5675313 -0.3944,-1.0276622 -0.83088,-1.2988172 -0.4331,-0.2706441 -1.01292,-0.3788042 -1.74575,-0.3788042 z M 68.079273,8.759308 a 0.32912959,0.32912959 0 0 0 -0.330382,0.3286679 v 5.6409231 a 0.32912959,0.32912959 0 0 0 0.330382,0.329097 h 1.180549 a 0.32912959,0.32912959 0 0 0 0.328668,-0.329097 v -1.812175 h 0.871592 l 1.212687,1.98401 a 0.32912959,0.32912959 0 0 0 0.280247,0.157261 h 1.329669 a 0.32912959,0.32912959 0 0 0 0.275534,-0.506928 l -1.354095,-2.10399 c 0.260118,-0.125351 0.542735,-0.221888 0.720755,-0.448652 a 0.32912959,0.32912959 0 0 0 0,-4.28e-4 0.32912959,0.32912959 0 0 0 0,-4.27e-4 0.32912959,0.32912959 0 0 0 0,-4.3e-4 0.32912959,0.32912959 0 0 0 0,-4.28e-4 c 0.268885,-0.345708 0.406657,-0.770479 0.406657,-1.227685 0,-0.615196 -0.230515,-1.1507907 -0.674048,-1.5010764 -0.442522,-0.352079 -1.040402,-0.5086422 -1.760324,-0.5086422 z m 7.286406,0 a 0.32912959,0.32912959 0 0 0 -0.330382,0.3286679 v 5.6409231 a 0.32912959,0.32912959 0 0 0 0.330382,0.329097 h 4.597926 a 0.32912959,0.32912959 0 0 0 0.330383,-0.329097 v -0.913157 a 0.32912959,0.32912959 0 0 0 -0.330383,-0.328669 h -3.088709 v -0.826169 h 2.680338 a 0.32912959,0.32912959 0 0 0 0.329097,-0.330381 V 11.41865 a 0.32912959,0.32912959 0 0 0 -0.329097,-0.328668 h -2.680338 v -0.759751 h 2.925018 a 0.32912959,0.32912959 0 0 0 0.328669,-0.328668 V 9.0879764 A 0.32912959,0.32912959 0 0 0 79.799914,8.7593085 Z m 6.833041,0 a 0.32912959,0.32912959 0 0 0 -0.329097,0.3286679 v 5.6409231 a 0.32912959,0.32912959 0 0 0 0.329097,0.329097 h 1.180549 a 0.32912959,0.32912959 0 0 0 0.330382,-0.329097 v -1.656625 h 1.070421 c 0.464315,0 0.88435,-0.08515 1.245682,-0.267391 a 0.32912959,0.32912959 0 0 0 0.0017,0 c 0.360087,-0.183147 0.649806,-0.453737 0.846736,-0.793602 0.195774,-0.337868 0.293103,-0.723908 0.293103,-1.13684 0,-0.637603 -0.222937,-1.1924924 -0.662478,-1.5662103 -0.439371,-0.3780168 -1.04556,-0.5489223 -1.771431,-0.5489223 z m 21.41227,0 a 0.32912959,0.32912959 0 0 0 -0.33038,0.3286679 v 5.6409231 a 0.32912959,0.32912959 0 0 0 0.33038,0.329097 h 1.18055 a 0.32912959,0.32912959 0 0 0 0.32868,-0.329097 V 9.0879764 a 0.32912959,0.32912959 0 0 0 -0.32868,-0.3286679 z m 3.18727,0 a 0.32912959,0.32912959 0 0 0 -0.32866,0.3286679 v 0.9135871 a 0.32912959,0.32912959 0 0 0 0.32866,0.328667 h 1.49165 v 4.398669 a 0.32912959,0.32912959 0 0 0 0.32866,0.329097 h 1.18056 a 0.32912959,0.32912959 0 0 0 0.33038,-0.329097 V 10.33023 h 1.49507 a 0.32912959,0.32912959 0 0 0 0.3304,-0.328667 V 9.0879764 a 0.32912959,0.32912959 0 0 0 -0.3304,-0.3286679 z m 14.42369,0 a 0.32912959,0.32912959 0 0 0 -0.32866,0.3286679 v 5.6409231 a 0.32912959,0.32912959 0 0 0 0.32866,0.329097 h 1.18097 a 0.32912959,0.32912959 0 0 0 0.3304,-0.329097 v -1.812175 h 0.87116 l 1.21139,1.98401 a 0.32912959,0.32912959 0 0 0 0.28196,0.157261 h 1.32797 a 0.32912959,0.32912959 0 0 0 0.27681,-0.506928 l -1.35366,-2.10399 c 0.26012,-0.125351 0.5423,-0.221888 0.72033,-0.448652 a 0.32912959,0.32912959 0 0 0 0,-4.28e-4 0.32912959,0.32912959 0 0 0 0,-4.27e-4 0.32912959,0.32912959 0 0 0 0,-4.3e-4 0.32912959,0.32912959 0 0 0 0,-4.28e-4 c 0.26889,-0.345708 0.40494,-0.770479 0.40494,-1.227685 0,-0.614949 -0.22874,-1.1507815 -0.67192,-1.5010763 -3.7e-4,-2.986e-4 -8.2e-4,2.985e-4 -0.002,0 -0.4424,-0.3514475 -1.041,-0.5086427 -1.76032,-0.5086427 z m 7.2864,0 a 0.32912959,0.32912959 0 0 0 -0.32867,0.3286679 v 5.6409231 a 0.32912959,0.32912959 0 0 0 0.32867,0.329097 h 1.18099 a 0.32912959,0.32912959 0 0 0 0.33038,-0.329097 V 9.0879764 a 0.32912959,0.32912959 0 0 0 -0.33038,-0.3286679 z m 3.64407,0 a 0.32912959,0.32912959 0 0 0 -0.32868,0.3286679 v 5.6409231 a 0.32912959,0.32912959 0 0 0 0.32868,0.329097 h 4.59964 a 0.32912959,0.32912959 0 0 0 0.32867,-0.329097 v -0.913157 a 0.32912959,0.32912959 0 0 0 -0.32867,-0.328669 h -3.08828 v -0.826169 h 2.68034 a 0.32912959,0.32912959 0 0 0 0.32866,-0.330381 V 11.41865 a 0.32912959,0.32912959 0 0 0 -0.32866,-0.328668 h -2.68034 v -0.759751 h 2.92501 a 0.32912959,0.32912959 0 0 0 0.32867,-0.328668 V 9.0879764 a 0.32912959,0.32912959 0 0 0 -0.32867,-0.3286679 z m -40.485744,1.503219 c 0.447234,0 0.734304,0.129489 0.960294,0.401514 a 0.32912959,0.32912959 0 0 0 0,0.0017 c 0.226942,0.27107 0.356093,0.661364 0.356093,1.217829 0,0.588212 -0.131235,0.996019 -0.356093,1.26668 a 0.32912959,0.32912959 0 0 0 -0.0017,0 c -0.222237,0.270007 -0.510375,0.401515 -0.966722,0.401515 -0.432418,0 -0.717439,-0.130664 -0.953866,-0.413084 v -0.0017 c -0.233917,-0.285533 -0.366376,-0.686979 -0.366376,-1.253396 0,-0.562254 0.129254,-0.953935 0.354806,-1.221256 a 0.32912959,0.32912959 0 0 0 0.0017,-0.0017 c 0.224659,-0.268303 0.514963,-0.398087 0.971864,-0.398087 z m 24.447424,0 c 0.44724,0 0.73259,0.129489 0.95858,0.401514 a 0.32912959,0.32912959 0 0 0 0.002,0.0017 c 0.22695,0.27107 0.35481,0.661364 0.35481,1.217829 0,0.588212 -0.13166,0.996019 -0.35652,1.26668 -0.22223,0.270006 -0.51038,0.401515 -0.96672,0.401515 -0.43182,0 -0.71764,-0.1315 -0.95387,-0.413084 -0.23444,-0.285593 -0.36594,-0.688021 -0.36594,-1.255111 0,-0.562254 0.12882,-0.953935 0.35437,-1.221256 a 0.32912959,0.32912959 0 0 0 0,-4.29e-4 0.32912959,0.32912959 0 0 0 0,-4.28e-4 0.32912959,0.32912959 0 0 0 0,-4.29e-4 0.32912959,0.32912959 0 0 0 0,-4.28e-4 c 0.22466,-0.268342 0.51668,-0.398087 0.97357,-0.398087 z m -46.52561,0.07284 h 1.183976 c 0.304087,0 0.488491,0.0629 0.578062,0.132839 0.08957,0.06993 0.132839,0.149059 0.132839,0.349666 0,0.200009 -0.04527,0.295644 -0.142266,0.380517 -0.09151,0.08008 -0.25471,0.142695 -0.536067,0.142695 H 69.58849 Z m 14.121161,0 h 0.890876 c 0.303103,0 0.482401,0.06582 0.574633,0.14398 0.09223,0.07815 0.146121,0.183323 0.146121,0.414799 0,0.239682 -0.05698,0.363074 -0.157262,0.456365 -2.85e-4,2.59e-4 -0.0013,-2.59e-4 -0.0017,0 -0.101475,0.09179 -0.25879,0.155549 -0.529641,0.155549 h -0.923012 z m 39.023669,0 h 1.18355 c 0.30407,0 0.48892,0.0629 0.57848,0.132839 0.0896,0.06993 0.13284,0.149059 0.13284,0.349666 0,0.200009 -0.0475,0.295644 -0.1444,0.380517 -0.0915,0.08008 -0.25472,0.142695 -0.53608,0.142695 h -1.21439 z" /><g
       id="g3"
       transform="translate(-0.26317114)"><g
         id="g6"
         transform="matrix(0.94332449,0,0,0.94332449,2.4435138,-2.4450566)"><g
           id="g2"
           transform="matrix(1.4666938,0,0,1.4666938,-0.61302148,0.20931748)"
           style="fill:#5e513c;fill-opacity:1"><circle
             style="fill:#5e513c;fill-opacity:1;stroke-width:0.264583"
             id="path1"
             cx="8.0267248"
             cy="9.921874"
             r="2.8948843" /><circle
             style="fill:#5e513c;fill-opacity:1;stroke-width:0.198437"
             id="circle1"
             cx="14.737593"
             cy="9.921874"
             r="2.1711633" /><circle
             style="fill:#5e513c;fill-opacity:1;stroke-width:0.126278"
             id="circle2"
             cx="19.737846"
             cy="9.921874"
             r="1.3816495" /></g><rect
           style="fill:none;stroke:#5e513c;stroke-width:0.958155;stroke-linecap:round;stroke-linejoin:round;stroke-dasharray:none"
           id="rect4"
           width="4.4109225"
           height="10.836283"
           x="42.706024"
           y="9.7953997"
           ry="1.5281937" /></g><g
         id="g7"
         transform="matrix(0.94332449,0,0,0.94332449,10.864995,-2.4450566)"><g
           id="g5"
           transform="matrix(-1.4666938,0,0,1.4666938,211.44661,0.20931748)"
           style="fill:#5e513c;fill-opacity:1"><circle
             style="fill:#5e513c;fill-opacity:1;stroke-width:0.264583"
             id="circle3"
             cx="8.0267248"
             cy="9.921874"
             r="2.8948843" /><circle
             style="fill:#5e513c;fill-opacity:1;stroke-width:0.198437"
             id="circle4"
             cx="14.737593"
             cy="9.921874"
             r="2.1711633" /><circle
             style="fill:#5e513c;fill-opacity:1;stroke-width:0.126278"
             id="circle5"
             cx="19.737846"
             cy="9.921874"
             r="1.3816495" /></g><rect
           style="fill:none;stroke:#5e513c;stroke-width:0.958155;stroke-linecap:round;stroke-linejoin:round;stroke-dasharray:none"
           id="rect5"
           width="4.4109225"
           height="10.836283"
           x="-168.12756"
           y="9.7953997"
           ry="1.5281937"
           transform="scale(-1,1)" /></g></g></g></svg>
