<?xml version="1.0" encoding="UTF-8" standalone="no"?>
<!-- Created with Inkscape (http://www.inkscape.org/) -->

<svg
   width="800"
   height="75"
   viewBox="0 0 211.66665 19.843749"
   version="1.1"
   id="svg1"
   inkscape:version="1.3.2 (091e20ef0f, 2023-11-25)"
   sodipodi:docname="repos-title.svg"
   xml:space="preserve"
   xmlns:inkscape="http://www.inkscape.org/namespaces/inkscape"
   xmlns:sodipodi="http://sodipodi.sourceforge.net/DTD/sodipodi-0.dtd"
   xmlns="http://www.w3.org/2000/svg"
   xmlns:svg="http://www.w3.org/2000/svg"><sodipodi:namedview
     id="namedview1"
     pagecolor="#ffffff"
     bordercolor="#000000"
     borderopacity="0.25"
     inkscape:showpageshadow="2"
     inkscape:pageopacity="0.0"
     inkscape:pagecheckerboard="0"
     inkscape:deskcolor="#d1d1d1"
     inkscape:document-units="px"
     inkscape:zoom="0.5026827"
     inkscape:cx="323.26555"
     inkscape:cy="155.16746"
     inkscape:window-width="1920"
     inkscape:window-height="1002"
     inkscape:window-x="0"
     inkscape:window-y="0"
     inkscape:window-maximized="1"
     inkscape:current-layer="layer1" /><defs
     id="defs1"><linearGradient
       id="paint0_linear_87_8208"
       x1="25.0863"
       y1="30.182501"
       x2="20.0019"
       y2="21.2307"
       gradientUnits="userSpaceOnUse"
       gradientTransform="matrix(0.3503147,0,0,0.3503147,6.14672,72.751477)"><stop
         stop-color="#FB7655"
         id="stop18" /><stop
         offset="0.41"
         stop-color="#E42B1E"
         id="stop19" /><stop
         offset="0.99"
         stop-color="#990000"
         id="stop20" /><stop
         offset="1"
         stop-color="#990000"
         id="stop21" /></linearGradient><linearGradient
       id="paint1_linear_87_8208"
       x1="27.608601"
       y1="22.6528"
       x2="21.0723"
       y2="18.278601"
       gradientUnits="userSpaceOnUse"
       gradientTransform="matrix(0.3503147,0,0,0.3503147,6.14672,72.751477)"><stop
         stop-color="#871101"
         id="stop22" /><stop
         offset="0.99"
         stop-color="#911209"
         id="stop23" /><stop
         offset="1"
         stop-color="#911209"
         id="stop24" /></linearGradient><linearGradient
       id="paint2_linear_87_8208"
       x1="22.3878"
       y1="30.454201"
       x2="15.8517"
       y2="26.0802"
       gradientUnits="userSpaceOnUse"
       gradientTransform="matrix(0.3503147,0,0,0.3503147,6.14672,72.751477)"><stop
         stop-color="#871101"
         id="stop25" /><stop
         offset="0.99"
         stop-color="#911209"
         id="stop26" /><stop
         offset="1"
         stop-color="#911209"
         id="stop27" /></linearGradient><linearGradient
       id="paint3_linear_87_8208"
       x1="8.6876898"
       y1="19.4743"
       x2="9.7047195"
       y2="26.065701"
       gradientUnits="userSpaceOnUse"
       gradientTransform="matrix(0.3503147,0,0,0.3503147,6.14672,72.751477)"><stop
         stop-color="white"
         id="stop28" /><stop
         offset="0.23"
         stop-color="#E57252"
         id="stop29" /><stop
         offset="0.46"
         stop-color="#DE3B20"
         id="stop30" /><stop
         offset="0.99"
         stop-color="#A60003"
         id="stop31" /><stop
         offset="1"
         stop-color="#A60003"
         id="stop32" /></linearGradient><linearGradient
       id="paint4_linear_87_8208"
       x1="21.819201"
       y1="7.1000199"
       x2="22.940901"
       y2="11.9204"
       gradientUnits="userSpaceOnUse"
       gradientTransform="matrix(0.3503147,0,0,0.3503147,6.14672,72.751477)"><stop
         stop-color="white"
         id="stop33" /><stop
         offset="0.18"
         stop-color="#E46342"
         id="stop34" /><stop
         offset="0.4"
         stop-color="#C82410"
         id="stop35" /><stop
         offset="0.99"
         stop-color="#A80D00"
         id="stop36" /><stop
         offset="1"
         stop-color="#A80D00"
         id="stop37" /></linearGradient><linearGradient
       id="paint5_linear_87_8208"
       x1="18.411699"
       y1="5.4017701"
       x2="23.2251"
       y2="3.00175"
       gradientUnits="userSpaceOnUse"
       gradientTransform="matrix(0.3503147,0,0,0.3503147,6.14672,72.751477)"><stop
         stop-color="white"
         id="stop38" /><stop
         offset="0.54"
         stop-color="#C81F11"
         id="stop39" /><stop
         offset="0.99"
         stop-color="#BF0905"
         id="stop40" /><stop
         offset="1"
         stop-color="#BF0905"
         id="stop41" /></linearGradient><linearGradient
       id="paint6_linear_87_8208"
       x1="4.4728198"
       y1="17.793501"
       x2="4.8707299"
       y2="21.7663"
       gradientUnits="userSpaceOnUse"
       gradientTransform="matrix(0.3503147,0,0,0.3503147,6.14672,72.751477)"><stop
         stop-color="white"
         id="stop42" /><stop
         offset="0.31"
         stop-color="#DE4024"
         id="stop43" /><stop
         offset="0.99"
         stop-color="#BF190B"
         id="stop44" /><stop
         offset="1"
         stop-color="#BF190B"
         id="stop45" /></linearGradient><linearGradient
       id="paint7_linear_87_8208"
       x1="15.6452"
       y1="13.3187"
       x2="16.02"
       y2="20.0464"
       gradientUnits="userSpaceOnUse"
       gradientTransform="matrix(0.3503147,0,0,0.3503147,6.14672,72.751477)"><stop
         stop-color="white"
         id="stop46" /><stop
         offset="0.23"
         stop-color="#E4714E"
         id="stop47" /><stop
         offset="0.56"
         stop-color="#BE1A0D"
         id="stop48" /><stop
         offset="0.99"
         stop-color="#A80D00"
         id="stop49" /><stop
         offset="1"
         stop-color="#A80D00"
         id="stop50" /></linearGradient><linearGradient
       id="paint8_linear_87_8208"
       x1="1.75216"
       y1="22.840401"
       x2="20.407801"
       y2="3.71053"
       gradientUnits="userSpaceOnUse"
       gradientTransform="matrix(0.3503147,0,0,0.3503147,6.14672,72.751477)"><stop
         stop-color="#BD0012"
         id="stop51" /><stop
         offset="0.07"
         stop-color="white"
         id="stop52" /><stop
         offset="0.17"
         stop-color="white"
         id="stop53" /><stop
         offset="0.27"
         stop-color="#C82F1C"
         id="stop54" /><stop
         offset="0.33"
         stop-color="#820C01"
         id="stop55" /><stop
         offset="0.46"
         stop-color="#A31601"
         id="stop56" /><stop
         offset="0.72"
         stop-color="#B31301"
         id="stop57" /><stop
         offset="0.99"
         stop-color="#E82609"
         id="stop58" /><stop
         offset="1"
         stop-color="#E82609"
         id="stop59" /></linearGradient><linearGradient
       id="paint9_linear_87_8208"
       x1="16.001499"
       y1="24.7752"
       x2="10.3965"
       y2="23.3957"
       gradientUnits="userSpaceOnUse"
       gradientTransform="matrix(0.3503147,0,0,0.3503147,6.14672,72.751477)"><stop
         stop-color="#8C0C01"
         id="stop60" /><stop
         offset="0.54"
         stop-color="#990C00"
         id="stop61" /><stop
         offset="0.99"
         stop-color="#A80D0E"
         id="stop62" /><stop
         offset="1"
         stop-color="#A80D0E"
         id="stop63" /></linearGradient><linearGradient
       id="paint10_linear_87_8208"
       x1="25.625099"
       y1="18.031401"
       x2="20.635"
       y2="13.5714"
       gradientUnits="userSpaceOnUse"
       gradientTransform="matrix(0.3503147,0,0,0.3503147,6.14672,72.751477)"><stop
         stop-color="#7E110B"
         id="stop64" /><stop
         offset="0.99"
         stop-color="#9E0C00"
         id="stop65" /><stop
         offset="1"
         stop-color="#9E0C00"
         id="stop66" /></linearGradient><linearGradient
       id="paint11_linear_87_8208"
       x1="27.453899"
       y1="9.8231401"
       x2="24.9671"
       y2="7.1718898"
       gradientUnits="userSpaceOnUse"
       gradientTransform="matrix(0.3503147,0,0,0.3503147,6.14672,72.751477)"><stop
         stop-color="#79130D"
         id="stop67" /><stop
         offset="0.99"
         stop-color="#9E120B"
         id="stop68" /><stop
         offset="1"
         stop-color="#9E120B"
         id="stop69" /></linearGradient><radialGradient
       id="paint12_radial_87_8208"
       cx="0"
       cy="0"
       r="1"
       gradientUnits="userSpaceOnUse"
       gradientTransform="matrix(2.1369022,0,0,2.142847,13.651477,77.530891)"><stop
         stop-color="#A80D00"
         id="stop70" /><stop
         offset="0.99"
         stop-color="#7E0E08"
         id="stop71" /><stop
         offset="1"
         stop-color="#7E0E08"
         id="stop72" /></radialGradient><radialGradient
       id="paint13_radial_87_8208"
       cx="0"
       cy="0"
       r="1"
       gradientUnits="userSpaceOnUse"
       gradientTransform="matrix(2.8407229,0,0,2.848633,10.692228,80.354777)"><stop
         stop-color="#A30C00"
         id="stop73" /><stop
         offset="0.99"
         stop-color="#800E08"
         id="stop74" /><stop
         offset="1"
         stop-color="#800E08"
         id="stop75" /></radialGradient><linearGradient
       id="paint14_linear_87_8208"
       x1="7.2307501"
       y1="27.9701"
       x2="5.1997499"
       y2="21.0987"
       gradientUnits="userSpaceOnUse"
       gradientTransform="matrix(0.3503147,0,0,0.3503147,6.14672,72.751477)"><stop
         stop-color="#8B2114"
         id="stop76" /><stop
         offset="0.43"
         stop-color="#9E100A"
         id="stop77" /><stop
         offset="0.99"
         stop-color="#B3100C"
         id="stop78" /><stop
         offset="1"
         stop-color="#B3100C"
         id="stop79" /></linearGradient><linearGradient
       id="paint15_linear_87_8208"
       x1="22.7321"
       y1="5.1903701"
       x2="27.2663"
       y2="7.1862798"
       gradientUnits="userSpaceOnUse"
       gradientTransform="matrix(0.3503147,0,0,0.3503147,6.14672,72.751477)"><stop
         stop-color="#B31000"
         id="stop80" /><stop
         offset="0.44"
         stop-color="#910F08"
         id="stop81" /><stop
         offset="0.99"
         stop-color="#791C12"
         id="stop82" /><stop
         offset="1"
         stop-color="#791C12"
         id="stop83" /></linearGradient><linearGradient
       id="paint0_linear_87_8204"
       x1="12.4809"
       y1="2"
       x2="12.4809"
       y2="22.7407"
       gradientUnits="userSpaceOnUse"
       gradientTransform="matrix(0.34542143,0,0,0.34542143,475.10095,-7.3026251)"><stop
         stop-color="#327EBD"
         id="stop2" /><stop
         offset="1"
         stop-color="#1565A7"
         id="stop3" /></linearGradient><linearGradient
       id="paint1_linear_87_8204"
       x1="19.518999"
       y1="9.2592802"
       x2="19.518999"
       y2="30"
       gradientUnits="userSpaceOnUse"
       gradientTransform="matrix(0.34542143,0,0,0.34542143,475.10095,-7.3026251)"><stop
         stop-color="#FFDA4B"
         id="stop4"
         offset="0"
         style="stop-color:#f9cb00;stop-opacity:1;" /><stop
         offset="1"
         stop-color="#F9C600"
         id="stop5"
         style="stop-color:#ffa90d;stop-opacity:1;" /></linearGradient><radialGradient
       id="paint12_radial_87_8208-3"
       cx="0"
       cy="0"
       r="1"
       gradientUnits="userSpaceOnUse"
       gradientTransform="matrix(2.1369022,0,0,2.142847,13.651477,77.530891)"><stop
         stop-color="#A80D00"
         id="stop70-0" /><stop
         offset="0.99"
         stop-color="#7E0E08"
         id="stop71-7" /><stop
         offset="1"
         stop-color="#7E0E08"
         id="stop72-8" /></radialGradient><radialGradient
       id="paint13_radial_87_8208-6"
       cx="0"
       cy="0"
       r="1"
       gradientUnits="userSpaceOnUse"
       gradientTransform="matrix(2.8407229,0,0,2.848633,10.692228,80.354777)"><stop
         stop-color="#A30C00"
         id="stop73-8" /><stop
         offset="0.99"
         stop-color="#800E08"
         id="stop74-8" /><stop
         offset="1"
         stop-color="#800E08"
         id="stop75-4" /></radialGradient><linearGradient
       id="paint0_linear_87_8204-9"
       x1="12.4809"
       y1="2"
       x2="12.4809"
       y2="22.7407"
       gradientUnits="userSpaceOnUse"
       gradientTransform="matrix(0.34542143,0,0,0.34542143,475.10095,-7.3026251)"><stop
         stop-color="#327EBD"
         id="stop2-6" /><stop
         offset="1"
         stop-color="#1565A7"
         id="stop3-4" /></linearGradient><linearGradient
       id="paint1_linear_87_8204-3"
       x1="19.518999"
       y1="9.2592802"
       x2="19.518999"
       y2="30"
       gradientUnits="userSpaceOnUse"
       gradientTransform="matrix(0.34542143,0,0,0.34542143,475.10095,-7.3026251)"><stop
         stop-color="#FFDA4B"
         id="stop4-3"
         offset="0"
         style="stop-color:#f9cb00;stop-opacity:1;" /><stop
         offset="1"
         stop-color="#F9C600"
         id="stop5-3"
         style="stop-color:#ffa90d;stop-opacity:1;" /></linearGradient></defs><g
     inkscape:label="Camada 1"
     inkscape:groupmode="layer"
     id="layer1"><rect
       style="fill:#dfdbd4;fill-opacity:1;stroke-width:0.245667"
       id="rect1"
       width="211.66666"
       height="19.843748"
       x="-1.7470703e-06"
       y="3.1304933e-07"
       ry="1.9440019" /><path
       id="path2"
       style="color:#000000;-inkscape-font-specification:'Liberation Sans Bold';fill:#5e513c;stroke-width:0.662064;stroke-linecap:round;stroke-linejoin:round;-inkscape-stroke:none"
       d="m 94.522078,7.9935606 c -0.76343,0 -1.402674,0.2250049 -1.858111,0.685288 -0.455509,0.4603544 -0.676393,1.1053957 -0.676393,1.8762454 0,0.772837 0.220561,1.422001 0.673656,1.894379 a 0.26278273,0.26278273 0 0 0 0.0014,0.0014 c 0.456198,0.470681 1.094174,0.702053 1.852979,0.702053 0.495896,0 0.94611,-0.102176 1.334311,-0.313051 0.388548,-0.213461 0.695481,-0.529058 0.902883,-0.927174 0.207206,-0.397741 0.307575,-0.854205 0.307575,-1.357575 0,-0.7627356 -0.223029,-1.4049129 -0.678787,-1.868376 -0.455189,-0.4648732 -1.095546,-0.6931772 -1.8595,-0.6931772 z m 5.834352,0 c -0.616387,0 -1.11731,0.1122165 -1.488263,0.3749756 -0.368429,0.2602181 -0.567595,0.6743009 -0.567595,1.1468227 0,0.1819849 0.02264,0.3516214 0.07356,0.5070381 a 0.26278273,0.26278273 0 0 0 0.0014,0.0038 c 0.05149,0.149314 0.124033,0.285902 0.219648,0.403372 0.09373,0.11515 0.208247,0.213298 0.337684,0.293548 a 0.26278273,0.26278273 0 0 0 0.0038,0.0027 c 0.122213,0.07333 0.255547,0.135933 0.400977,0.189883 a 0.26278273,0.26278273 0 0 0 0.0038,0.0014 c 0.154641,0.05487 0.390329,0.116996 0.730789,0.196725 a 0.26278273,0.26278273 0 0 0 0.007,0.0014 c 0.38402,0.07765 0.64808,0.148602 0.74379,0.187488 a 0.26278273,0.26278273 0 0 0 9.6e-4,0.0014 c 0.11153,0.04462 0.18141,0.0937 0.22136,0.138221 a 0.26278273,0.26278273 0 0 0 0.002,0.0024 c 0.0311,0.03374 0.0455,0.06327 0.0455,0.138562 0,0.128299 -0.0223,0.166439 -0.12043,0.226148 -0.0981,0.05971 -0.30133,0.112562 -0.60386,0.112562 -0.28807,0 -0.490065,-0.05122 -0.61036,-0.122825 -0.116684,-0.07134 -0.193304,-0.173021 -0.241885,-0.360647 a 0.26278273,0.26278273 0 0 0 -0.297313,-0.193988 l -0.910409,0.149853 a 0.26278273,0.26278273 0 0 0 -0.213148,0.316814 c 0.106196,0.470642 0.363593,0.854314 0.749951,1.09516 0.386831,0.241142 0.889083,0.346578 1.497504,0.346578 0.66494,0 1.19881,-0.118016 1.59022,-0.396871 0.39155,-0.279679 0.60284,-0.721027 0.60284,-1.227224 0,-0.214365 -0.0337,-0.413854 -0.10606,-0.593596 -0.0707,-0.177215 -0.17658,-0.334466 -0.31305,-0.462904 -0.13962,-0.133541 -0.3161,-0.238953 -0.52483,-0.324339 -0.21898,-0.09273 -0.53255,-0.1765651 -0.96994,-0.2692581 h -0.001 c -0.35616,-0.077119 -0.59749,-0.1458876 -0.673654,-0.1782491 -0.09096,-0.040799 -0.144897,-0.083824 -0.173461,-0.1176931 -0.01723,-0.02198 -0.03079,-0.050284 -0.03079,-0.1214568 0,-0.1091117 0.01437,-0.1323448 0.09032,-0.17996 0.07596,-0.04761 0.245225,-0.094429 0.503275,-0.094429 0.23648,0 0.38864,0.04642 0.46803,0.1009295 a 0.26278273,0.26278273 0 0 0 0.001,0.00136 c 0.0892,0.060312 0.1449,0.138301 0.17962,0.2819155 a 0.26278273,0.26278273 0 0 0 0.29068,0.1989532 l 0.91417,-0.1255615 a 0.26278273,0.26278273 0 0 0 0.22102,-0.3116813 c -0.091,-0.4529895 -0.3134,-0.8203659 -0.6619,-1.0368599 -0.34579,-0.2160877 -0.80873,-0.302444 -1.39385,-0.302444 z m 13.6849,0 c -0.76344,0 -1.40269,0.2250042 -1.85812,0.685288 -0.45551,0.4603544 -0.67776,1.1053949 -0.67776,1.8762454 0,0.772837 0.22192,1.422001 0.67503,1.894379 a 0.26278273,0.26278273 0 0 0 0,0.0014 c 0.45619,0.470682 1.09553,0.702053 1.85434,0.702053 0.4959,0 0.94509,-0.102176 1.33329,-0.313051 a 0.26278273,0.26278273 0 0 0 0.002,0 c 0.38855,-0.213461 0.69513,-0.529058 0.90254,-0.927174 0.20721,-0.397741 0.30791,-0.854205 0.30791,-1.357575 0,-0.7624665 -0.22336,-1.4049512 -0.67879,-1.868376 -0.45514,-0.4648222 -1.09552,-0.6931574 -1.85947,-0.6931574 z m 20.01704,0 c -0.6159,0 -1.11638,0.1126779 -1.48724,0.3749756 -0.36843,0.2602187 -0.56897,0.6743009 -0.56897,1.1468227 0,0.1819809 0.0229,0.3516254 0.0739,0.5070381 a 0.26278273,0.26278273 0 0 0 0.002,0.0038 c 0.0515,0.149316 0.12539,0.2859 0.22101,0.403372 0.0937,0.115151 0.20689,0.213298 0.33633,0.293548 a 0.26278273,0.26278273 0 0 0 0.004,0.0027 c 0.12221,0.07333 0.25554,0.135933 0.40097,0.189883 a 0.26278273,0.26278273 0 0 0 0.004,0.0014 c 0.15465,0.05487 0.39136,0.116996 0.73182,0.196725 a 0.26278273,0.26278273 0 0 0 0.008,0.0014 c 0.38402,0.07765 0.64671,0.148603 0.74242,0.187488 a 0.26278273,0.26278273 0 0 0 0.002,0.0014 c 0.11152,0.04462 0.18107,0.0937 0.22102,0.138221 a 0.26278273,0.26278273 0 0 0 0.003,0.0024 c 0.0311,0.03374 0.0452,0.06327 0.0452,0.138562 0,0.128299 -0.022,0.166439 -0.12008,0.226148 -0.0981,0.05971 -0.30133,0.112562 -0.60387,0.112562 -0.28807,0 -0.49007,-0.05122 -0.61035,-0.122825 -0.11669,-0.0713 -0.19331,-0.172981 -0.24189,-0.360606 a 0.26278273,0.26278273 0 0 0 -0.2963,-0.193988 l -0.91143,0.149853 a 0.26278273,0.26278273 0 0 0 -0.21349,0.316813 c 0.1062,0.470643 0.36359,0.854315 0.74996,1.095161 0.38683,0.241141 0.88909,0.346578 1.49751,0.346578 0.66493,0 1.19913,-0.118017 1.59056,-0.396872 0.39156,-0.279678 0.6025,-0.721026 0.6025,-1.227223 0,-0.213912 -0.0326,-0.412783 -0.10469,-0.592227 v -0.0014 c -0.0704,-0.176923 -0.17569,-0.333155 -0.31169,-0.461533 -0.13928,-0.133811 -0.31538,-0.239118 -0.52381,-0.324682 -0.21908,-0.09318 -0.53453,-0.1772156 -0.97369,-0.2702839 h -0.002 c -0.35616,-0.077119 -0.5975,-0.1458899 -0.67366,-0.1782498 -0.0902,-0.040448 -0.14299,-0.082596 -0.17174,-0.1163246 -0.0175,-0.02206 -0.0325,-0.050939 -0.0325,-0.1228245 0,-0.1091117 0.0148,-0.1323464 0.0907,-0.1799616 0.0759,-0.04761 0.24487,-0.094428 0.50292,-0.094428 0.23649,0 0.38865,0.04642 0.46804,0.1009295 a 0.26278273,0.26278273 0 0 0 0.002,0.00136 c 0.0892,0.060312 0.14489,0.1383026 0.17961,0.2819147 a 0.26278273,0.26278273 0 0 0 0.29081,0.1991205 l 0.91417,-0.1255615 a 0.26278273,0.26278273 0 0 0 0.22239,-0.3116821 c -0.0911,-0.4531268 -0.31489,-0.8205032 -0.66339,-1.036998 -0.34579,-0.216087 -0.80873,-0.3024438 -1.39383,-0.3024438 z M 75.68949,8.060618 a 0.26278273,0.26278273 0 0 0 -0.263783,0.2624141 v 4.5038099 a 0.26278273,0.26278273 0 0 0 0.263783,0.262757 h 0.94257 a 0.26278273,0.26278273 0 0 0 0.262415,-0.262757 V 11.37997 h 0.695894 l 0.96823,1.584068 a 0.26278273,0.26278273 0 0 0 0.223754,0.12556 h 1.06163 a 0.26278273,0.26278273 0 0 0 0.219991,-0.40474 l -1.081132,-1.679862 c 0.207682,-0.100082 0.433329,-0.177159 0.575463,-0.358211 a 0.26278273,0.26278273 0 0 0 0,-3.42e-4 0.26278273,0.26278273 0 0 0 0,-3.41e-4 0.26278273,0.26278273 0 0 0 0,-3.43e-4 0.26278273,0.26278273 0 0 0 0,-3.42e-4 c 0.214682,-0.276019 0.324682,-0.615164 0.324682,-0.9802047 0,-0.4911831 -0.184047,-0.9188111 -0.538172,-1.1984853 C 78.991498,8.1856211 78.51414,8.0606183 77.939342,8.0606183 Z m 5.817592,0 a 0.26278273,0.26278273 0 0 0 -0.263783,0.2624141 v 4.5038099 a 0.26278273,0.26278273 0 0 0 0.263783,0.262757 h 3.671063 a 0.26278273,0.26278273 0 0 0 0.263783,-0.262757 v -0.72908 a 0.26278273,0.26278273 0 0 0 -0.263783,-0.262415 h -2.466079 v -0.659628 h 2.140028 a 0.26278273,0.26278273 0 0 0 0.262757,-0.263782 V 10.183882 A 0.26278273,0.26278273 0 0 0 84.852094,9.9214683 H 82.712066 V 9.31487 h 2.335385 A 0.26278273,0.26278273 0 0 0 85.309866,9.0524558 V 8.3230325 A 0.26278273,0.26278273 0 0 0 85.047451,8.0606184 Z m 5.455617,0 a 0.26278273,0.26278273 0 0 0 -0.262757,0.2624141 v 4.5038099 a 0.26278273,0.26278273 0 0 0 0.262757,0.262757 h 0.942571 a 0.26278273,0.26278273 0 0 0 0.263783,-0.262757 v -1.322678 h 0.854642 c 0.370717,0 0.70608,-0.06799 0.994574,-0.213489 a 0.26278273,0.26278273 0 0 0 0.0014,0 c 0.2875,-0.146228 0.518817,-0.362272 0.676049,-0.633626 0.156309,-0.269759 0.234018,-0.57798 0.234018,-0.9076724 0,-0.5090732 -0.177996,-0.9521064 -0.528933,-1.2504892 C 90.049958,8.1970722 89.565966,8.0606183 88.986419,8.0606183 Z m 17.095921,0 a 0.26278273,0.26278273 0 0 0 -0.26378,0.2624141 v 4.5038099 a 0.26278273,0.26278273 0 0 0 0.26378,0.262757 h 0.94258 a 0.26278273,0.26278273 0 0 0 0.26242,-0.262757 V 8.3230325 A 0.26278273,0.26278273 0 0 0 105.0012,8.0606184 Z m 2.54477,0 a 0.26278273,0.26278273 0 0 0 -0.2624,0.2624141 v 0.7294237 a 0.26278273,0.26278273 0 0 0 0.2624,0.2624134 h 1.19097 v 3.5119728 a 0.26278273,0.26278273 0 0 0 0.26241,0.262757 h 0.94258 a 0.26278273,0.26278273 0 0 0 0.26378,-0.262757 V 9.3148692 h 1.19369 a 0.26278273,0.26278273 0 0 0 0.26379,-0.2624134 V 8.3230325 a 0.26278273,0.26278273 0 0 0 -0.26379,-0.2624141 z m 11.51613,0 a 0.26278273,0.26278273 0 0 0 -0.26241,0.2624141 v 4.5038099 a 0.26278273,0.26278273 0 0 0 0.26241,0.262757 h 0.94291 a 0.26278273,0.26278273 0 0 0 0.2638,-0.262757 V 11.37997 h 0.69554 l 0.9672,1.584068 a 0.26278273,0.26278273 0 0 0 0.22512,0.12556 h 1.06028 a 0.26278273,0.26278273 0 0 0 0.221,-0.40474 l -1.08078,-1.679862 c 0.20768,-0.100082 0.43298,-0.177159 0.57512,-0.358211 a 0.26278273,0.26278273 0 0 0 0,-3.42e-4 0.26278273,0.26278273 0 0 0 0,-3.41e-4 0.26278273,0.26278273 0 0 0 0,-3.43e-4 0.26278273,0.26278273 0 0 0 0,-3.42e-4 c 0.21469,-0.276019 0.32331,-0.615164 0.32331,-0.9802047 0,-0.4909859 -0.18263,-0.9188038 -0.53647,-1.1984852 -2.9e-4,-2.384e-4 -6.5e-4,2.383e-4 -0.002,0 -0.35322,-0.2806017 -0.83116,-0.4061091 -1.40547,-0.4061091 z m 5.81759,0 a 0.26278273,0.26278273 0 0 0 -0.26242,0.2624141 v 4.5038099 a 0.26278273,0.26278273 0 0 0 0.26242,0.262757 h 0.94292 a 0.26278273,0.26278273 0 0 0 0.26378,-0.262757 V 8.3230325 a 0.26278273,0.26278273 0 0 0 -0.26378,-0.2624141 z m 2.90949,0 a 0.26278273,0.26278273 0 0 0 -0.26243,0.2624141 v 4.5038099 a 0.26278273,0.26278273 0 0 0 0.26243,0.262757 h 3.67243 a 0.26278273,0.26278273 0 0 0 0.26241,-0.262757 v -0.72908 a 0.26278273,0.26278273 0 0 0 -0.26241,-0.262415 h -2.46574 v -0.659628 h 2.14003 a 0.26278273,0.26278273 0 0 0 0.26241,-0.263782 v -0.728055 a 0.26278273,0.26278273 0 0 0 -0.26241,-0.2624137 h -2.14003 V 9.31487 h 2.33538 a 0.26278273,0.26278273 0 0 0 0.26242,-0.2624142 V 8.3230325 A 0.26278273,0.26278273 0 0 0 130.38867,8.0606184 Z M 94.522078,9.2608139 c 0.35708,0 0.586281,0.1033863 0.766715,0.3205757 a 0.26278273,0.26278273 0 0 0 0,0.00136 c 0.181195,0.216427 0.284311,0.5280444 0.284311,0.9723364 0,0.469638 -0.10478,0.795238 -0.284311,1.011339 a 0.26278273,0.26278273 0 0 0 -0.0014,0 c -0.177438,0.215578 -0.407492,0.320576 -0.771847,0.320576 -0.34525,0 -0.572816,-0.104324 -0.761583,-0.329813 v -0.0014 c -0.186764,-0.227974 -0.292521,-0.548495 -0.292521,-1.000732 0,-0.448914 0.103198,-0.7616389 0.283283,-0.9750726 a 0.26278273,0.26278273 0 0 0 0.0014,-0.00136 c 0.179372,-0.2142177 0.411156,-0.3178395 0.775953,-0.3178395 z m 19.519252,0 c 0.35708,0 0.58491,0.1033863 0.76534,0.3205757 a 0.26278273,0.26278273 0 0 0 0.002,0.00136 c 0.1812,0.216427 0.28329,0.5280444 0.28329,0.9723364 0,0.469638 -0.10512,0.795238 -0.28466,1.011339 -0.17743,0.215577 -0.40749,0.320576 -0.77184,0.320576 -0.34477,0 -0.57298,-0.104992 -0.76159,-0.329813 -0.18718,-0.228023 -0.29217,-0.549328 -0.29217,-1.002102 0,-0.448914 0.10285,-0.7616388 0.28293,-0.9750725 a 0.26278273,0.26278273 0 0 0 0,-3.426e-4 0.26278273,0.26278273 0 0 0 0,-3.417e-4 0.26278273,0.26278273 0 0 0 0,-3.425e-4 0.26278273,0.26278273 0 0 0 0,-3.417e-4 c 0.17938,-0.2142489 0.41253,-0.3178395 0.77732,-0.3178395 z m -37.146855,0.058157 h 0.945306 c 0.242789,0 0.39002,0.05022 0.461535,0.1060609 0.07151,0.055833 0.106061,0.1190113 0.106061,0.2791794 0,0.1596906 -0.03614,0.2360472 -0.113588,0.3038108 -0.07306,0.06394 -0.203365,0.11393 -0.428005,0.11393 h -0.971309 z m 11.274578,0 h 0.71129 c 0.242003,0 0.385157,0.052552 0.458797,0.1149561 0.07364,0.062396 0.116666,0.1463682 0.116666,0.3311826 0,0.1913663 -0.04549,0.2898844 -0.125561,0.3643694 -2.28e-4,2.07e-4 -0.001,-2.07e-4 -0.0014,0 -0.08102,0.07329 -0.206623,0.124193 -0.422875,0.124193 h -0.736949 z m 31.157177,0 h 0.94496 c 0.24278,0 0.39036,0.05022 0.46187,0.1060609 0.0715,0.055833 0.10606,0.1190113 0.10606,0.2791794 0,0.1596906 -0.0379,0.2360472 -0.11529,0.3038108 -0.073,0.06394 -0.20337,0.11393 -0.42801,0.11393 h -0.96959 z" /><g
       id="g9"
       transform="translate(-0.3072185)"><g
         id="g7"
         transform="matrix(0.75572485,0,0,0.75572485,48.8571,-1.5753767)"><g
           id="g5"
           transform="matrix(-1.4666938,0,0,1.4666938,211.44661,0.20931748)"
           style="fill:#5e513c;fill-opacity:1"><circle
             style="fill:#5e513c;fill-opacity:1;stroke-width:0.264583"
             id="circle3"
             cx="8.0267248"
             cy="9.921874"
             r="2.8948843" /><circle
             style="fill:#5e513c;fill-opacity:1;stroke-width:0.198437"
             id="circle4"
             cx="14.737593"
             cy="9.921874"
             r="2.1711633" /><circle
             style="fill:#5e513c;fill-opacity:1;stroke-width:0.126278"
             id="circle5"
             cx="19.737846"
             cy="9.921874"
             r="1.3816495" /></g><rect
           style="fill:none;stroke:#5e513c;stroke-width:0.958155;stroke-linecap:round;stroke-linejoin:round;stroke-dasharray:none"
           id="rect5"
           width="4.4109225"
           height="10.836283"
           x="-168.12756"
           y="9.7953997"
           ry="1.5281937"
           transform="scale(-1,1)" /></g><g
         id="g8"
         transform="matrix(-0.75572485,0,0,0.75572485,163.42399,-1.5753767)"><g
           id="g6"
           transform="matrix(-1.4666938,0,0,1.4666938,211.44661,0.20931748)"
           style="fill:#5e513c;fill-opacity:1"><circle
             style="fill:#5e513c;fill-opacity:1;stroke-width:0.264583"
             id="circle1"
             cx="8.0267248"
             cy="9.921874"
             r="2.8948843" /><circle
             style="fill:#5e513c;fill-opacity:1;stroke-width:0.198437"
             id="circle2"
             cx="14.737593"
             cy="9.921874"
             r="2.1711633" /><circle
             style="fill:#5e513c;fill-opacity:1;stroke-width:0.126278"
             id="circle6"
             cx="19.737846"
             cy="9.921874"
             r="1.3816495" /></g><rect
           style="fill:none;stroke:#5e513c;stroke-width:0.958155;stroke-linecap:round;stroke-linejoin:round;stroke-dasharray:none"
           id="rect6"
           width="4.4109225"
           height="10.836283"
           x="-168.12756"
           y="9.7953997"
           ry="1.5281937"
           transform="scale(-1,1)" /></g></g></g></svg>
